<svg width="613" height="166" viewBox="0 0 613 166" fill="none" xmlns="http://www.w3.org/2000/svg">
<g clip-path="url(#clip0)">
<path d="M114.643 58.2379H62.3061L89.834 30.7313L81.6353 22.5459C77.6459 24.2612 72.8394 23.4996 69.5778 20.2406C66.3162 16.9815 65.554 12.1786 67.2775 8.19228L59.0789 0L12.7231 46.3269C-3.00114 62.0322 -4.15471 86.8011 9.27616 103.865C10.3405 105.217 11.494 106.52 12.7437 107.762H65.0802L37.5524 135.269L45.751 143.461C49.7404 141.739 54.547 142.5 57.8086 145.759C61.0702 149.019 61.8324 153.821 60.1157 157.815L68.3075 166L114.67 119.68C129.488 104.867 131.363 82.012 120.28 65.1471C118.673 62.7046 116.792 60.3855 114.643 58.2379ZM72.0291 100.819H19.6926L55.3504 65.1883H107.687L72.0291 100.819Z" fill="#040436"/>
<path d="M206.05 78.0393C202.424 76.8729 197.7 75.8231 191.877 74.7665C186.714 73.95 182.869 73.0169 180.561 72.0769C178.144 71.1438 176.936 69.5108 176.936 67.1712C176.936 65.1883 178.035 63.4318 180.232 62.1488C182.429 60.8657 185.725 60.1659 190.12 60.1659C197.481 60.1659 204.292 62.0321 210.548 65.7715L217.469 50.2377C214.173 48.1382 210.108 46.615 205.054 45.4486C200.11 44.2822 195.167 43.699 190.113 43.699C183.411 43.699 177.478 44.6321 172.535 46.7385C167.591 48.838 163.745 51.6443 161.219 55.3836C158.582 59.0063 157.263 63.322 157.263 67.9945C157.263 73.7167 158.692 78.1559 161.438 81.1886C164.185 84.3448 167.481 86.4443 171.326 87.6107C175.061 88.8937 179.895 89.9435 185.608 90.8835C190.552 91.5833 194.178 92.2832 196.595 93.2163C199.012 94.1494 200.11 95.7892 200.11 97.8888C200.11 102.445 195.826 104.777 187.146 104.777C182.752 104.777 178.357 104.078 173.963 102.678C169.458 101.395 165.613 99.6452 162.427 97.4222L155.615 113.189C158.911 115.522 163.416 117.395 169.019 119.028C174.622 120.544 180.445 121.244 186.268 121.244C193.299 121.244 199.232 120.311 204.278 118.321C209.332 116.222 213.177 113.416 215.814 109.793C218.451 106.17 219.769 101.964 219.769 97.2987C219.769 91.8097 218.451 87.4872 215.704 84.4545C212.971 81.3052 209.785 79.2057 206.05 78.0393Z" fill="#040436"/>
<path d="M283.82 48.3715C278.217 45.2153 271.955 43.699 265.04 43.699C257.899 43.699 251.417 45.3319 245.711 48.6047C239.991 51.9942 235.384 56.55 232.088 62.5055C228.792 68.4611 227.144 75.1164 227.144 82.4785C227.144 89.9504 228.902 96.6126 232.198 102.568C235.493 108.407 240.327 112.963 246.48 116.352C252.632 119.625 259.664 121.258 267.677 121.258C280.531 121.258 290.192 117.285 296.894 109.114L286.017 96.5028C283.49 99.0689 280.854 100.825 277.997 101.992C275.141 103.158 271.845 103.741 268.219 103.741C262.836 103.741 258.331 102.458 254.706 99.7687C251.08 96.9625 248.883 93.3467 247.894 88.6742H301.494C301.824 85.0515 301.934 83.0686 301.934 82.7186C301.934 74.89 300.286 68.0014 297.1 62.0458C293.927 56.1932 289.533 51.6443 283.82 48.3715ZM247.572 75.9329C248.341 71.0272 250.208 67.1712 253.394 64.3718C256.58 61.5656 260.536 60.1659 265.15 60.1659C269.764 60.1659 273.609 61.5656 276.795 64.4884C279.872 67.2947 281.849 71.1438 282.508 75.9329H247.572V75.9329Z" fill="#040436"/>
<path d="M336.211 28.0486H315.674V120.195H336.211V28.0486Z" fill="#040436"/>
<path d="M375.865 28.0486H355.328V120.195H375.865V28.0486Z" fill="#040436"/>
<path d="M448.801 48.6047C442.869 45.3319 436.167 43.699 428.703 43.699C421.232 43.699 414.531 45.3319 408.605 48.6047C402.672 51.9942 398.058 56.55 394.762 62.3889C391.356 68.3444 389.708 74.9998 389.708 82.4785C389.708 89.9504 391.356 96.6126 394.762 102.568C398.058 108.407 402.672 112.963 408.605 116.352C414.538 119.625 421.239 121.258 428.703 121.258C436.174 121.258 442.876 119.625 448.801 116.352C454.624 112.963 459.238 108.414 462.644 102.568C465.94 96.6126 467.588 89.9572 467.588 82.4785C467.588 75.0067 465.94 68.3444 462.644 62.3889C459.238 56.55 454.624 51.9942 448.801 48.6047ZM441.667 97.6555C438.371 101.511 433.977 103.378 428.703 103.378C423.43 103.378 419.145 101.511 415.629 97.6555C412.224 93.9161 410.576 88.7771 410.576 82.4716C410.576 76.1662 412.224 71.0272 415.629 67.2878C419.145 63.4318 423.43 61.5656 428.703 61.5656C433.977 61.5656 438.371 63.4318 441.667 67.2878C445.073 71.0272 446.831 76.1662 446.831 82.4716C446.831 88.7771 445.066 93.9161 441.667 97.6555Z" fill="#040436"/>
<path d="M532.174 82.0051C532.174 88.7771 530.746 93.7995 527.67 97.3056C524.704 100.695 520.749 102.328 515.805 102.328C506.246 102.328 501.522 96.2558 501.522 84.1115V44.7488H480.875V87.3774C480.875 98.5886 483.621 107 489.115 112.723C494.498 118.445 501.969 121.251 511.19 121.251C515.585 121.251 519.76 120.435 523.495 118.678C527.231 116.929 530.526 114.472 533.273 111.206V120.201H552.712V44.7488H532.174V82.0051Z" fill="#040436"/>
<path d="M599.157 103.961C596.301 103.961 594.103 103.028 592.565 101.271C591.027 99.6384 590.258 97.1821 590.258 93.9162V63.3152H607.939V46.5052H590.258V28.0486H569.72V46.4984V63.3152V94.2661C569.72 103.144 572.028 109.8 576.642 114.472C581.256 119.028 587.848 121.244 596.191 121.244C599.487 121.244 602.563 120.894 605.529 120.078C608.496 119.261 610.913 118.095 613 116.572L607.397 101.155C605.2 103.028 602.343 103.961 599.157 103.961Z" fill="#040436"/>
</g>
<defs>
<clipPath id="clip0">
<rect width="613" height="166" fill="white"/>
</clipPath>
</defs>
</svg>
