<svg width="500" height="500" viewBox="0 0 500 500" fill="none" xmlns="http://www.w3.org/2000/svg">
<path d="M399.975 180.077H245.913L326.946 102.404L302.812 79.2901C291.068 84.1337 276.92 81.9831 267.319 72.7802C257.718 63.5772 255.474 50.015 260.547 38.7583L236.413 15.625L99.9574 146.443C53.6703 190.791 50.2746 260.734 89.8106 308.918C92.9436 312.735 96.3393 316.416 100.018 319.923H254.079L173.047 397.596L197.18 420.729C208.924 415.866 223.073 418.017 232.674 427.22C242.275 436.423 244.519 449.985 239.465 461.261L263.579 484.375L400.055 353.577C443.674 311.747 449.192 247.21 416.569 199.587C411.839 192.69 406.301 186.141 399.975 180.077ZM274.535 300.316H120.473L225.438 199.703H379.499L274.535 300.316Z" fill="#040436"/>
</svg>
