<svg width="54" height="76" viewBox="0 0 54 76" fill="none" xmlns="http://www.w3.org/2000/svg">
<path d="M48.5963 26.6631H26.4115L38.0802 14.0698L34.6049 10.3222C32.9139 11.1075 30.8764 10.7589 29.4939 9.26676C28.1113 7.77466 27.7882 5.57576 28.5188 3.75068L25.0435 0L5.39387 21.2099C-1.27147 28.4003 -1.76046 39.7403 3.93273 47.5526C4.38388 48.1714 4.87286 48.7683 5.4026 49.3369H27.5874L15.9187 61.9302L19.394 65.6809C21.0851 64.8925 23.1225 65.2411 24.5051 66.7332C25.8876 68.2253 26.2107 70.4242 25.483 72.2525L28.9554 76L48.608 54.7933C54.8891 48.0112 55.6837 37.5477 50.986 29.8264C50.3049 28.7081 49.5074 27.6464 48.5963 26.6631ZM30.533 46.1579H8.34815L23.4631 29.8453H45.6479L30.533 46.1579Z" fill="#F2F2F2"/>
</svg>
