<svg width="625" height="166" viewBox="0 0 625 166" fill="none" xmlns="http://www.w3.org/2000/svg">
<path d="M115.643 58.2379H63.3061L90.834 30.7313L82.6353 22.5459C78.6459 24.2612 73.8394 23.4996 70.5778 20.2406C67.3162 16.9815 66.554 12.1786 68.2775 8.19228L60.0789 0L13.7231 46.3269C-2.00114 62.0322 -3.15471 86.8011 10.2762 103.865C11.3405 105.217 12.494 106.52 13.7437 107.762H66.0802L38.5524 135.269L46.751 143.461C50.7404 141.739 55.547 142.5 58.8086 145.759C62.0702 149.019 62.8324 153.821 61.1157 157.815L69.3075 166L115.67 119.68C130.488 104.867 132.363 82.012 121.28 65.1471C119.673 62.7046 117.792 60.3855 115.643 58.2379ZM73.0291 100.819H20.6926L56.3504 65.1883H108.687L73.0291 100.819Z" fill="white"/>
<path d="M218.05 78.0393C214.424 76.8729 209.7 75.8231 203.877 74.7665C198.714 73.95 194.869 73.0169 192.561 72.0769C190.144 71.1438 188.936 69.5108 188.936 67.1712C188.936 65.1883 190.035 63.4318 192.232 62.1488C194.429 60.8657 197.725 60.1659 202.12 60.1659C209.481 60.1659 216.292 62.0321 222.548 65.7715L229.469 50.2377C226.173 48.1382 222.108 46.615 217.054 45.4486C212.11 44.2822 207.167 43.699 202.113 43.699C195.411 43.699 189.478 44.6321 184.535 46.7385C179.591 48.838 175.745 51.6443 173.219 55.3836C170.582 59.0063 169.263 63.322 169.263 67.9945C169.263 73.7167 170.692 78.1559 173.438 81.1886C176.185 84.3448 179.481 86.4443 183.326 87.6107C187.061 88.8937 191.895 89.9435 197.608 90.8835C202.552 91.5833 206.178 92.2832 208.595 93.2163C211.012 94.1494 212.11 95.7892 212.11 97.8888C212.11 102.445 207.826 104.777 199.146 104.777C194.752 104.777 190.357 104.078 185.963 102.678C181.458 101.395 177.613 99.6452 174.427 97.4222L167.615 113.189C170.911 115.522 175.416 117.395 181.019 119.028C186.622 120.544 192.445 121.244 198.268 121.244C205.299 121.244 211.232 120.311 216.278 118.321C221.332 116.222 225.177 113.416 227.814 109.793C230.451 106.17 231.769 101.964 231.769 97.2987C231.769 91.8097 230.451 87.4872 227.704 84.4545C224.971 81.3052 221.785 79.2057 218.05 78.0393Z" fill="white"/>
<path d="M295.82 48.3715C290.217 45.2153 283.955 43.699 277.04 43.699C269.899 43.699 263.417 45.3319 257.711 48.6047C251.991 51.9942 247.384 56.55 244.088 62.5055C240.792 68.4611 239.144 75.1164 239.144 82.4785C239.144 89.9504 240.902 96.6126 244.198 102.568C247.493 108.407 252.327 112.963 258.48 116.352C264.632 119.625 271.664 121.258 279.677 121.258C292.531 121.258 302.192 117.285 308.894 109.114L298.017 96.5028C295.49 99.0689 292.854 100.825 289.997 101.992C287.141 103.158 283.845 103.741 280.219 103.741C274.836 103.741 270.331 102.458 266.706 99.7687C263.08 96.9625 260.883 93.3467 259.894 88.6742H313.494C313.824 85.0515 313.934 83.0686 313.934 82.7186C313.934 74.89 312.286 68.0014 309.1 62.0458C305.927 56.1932 301.533 51.6443 295.82 48.3715ZM259.572 75.9329C260.341 71.0272 262.208 67.1712 265.394 64.3718C268.58 61.5656 272.536 60.1659 277.15 60.1659C281.764 60.1659 285.609 61.5655 288.795 64.4884C291.872 67.2947 293.849 71.1438 294.508 75.9329H259.572Z" fill="white"/>
<path d="M348.211 28.0486H327.674V120.195H348.211V28.0486Z" fill="white"/>
<path d="M387.865 28.0486H367.328V120.195H387.865V28.0486Z" fill="white"/>
<path d="M460.801 48.6047C454.869 45.3319 448.167 43.699 440.703 43.699C433.232 43.699 426.531 45.3319 420.605 48.6047C414.672 51.9942 410.058 56.55 406.762 62.3889C403.356 68.3444 401.708 74.9998 401.708 82.4785C401.708 89.9504 403.356 96.6126 406.762 102.568C410.058 108.407 414.672 112.963 420.605 116.352C426.538 119.625 433.239 121.258 440.703 121.258C448.174 121.258 454.876 119.625 460.801 116.352C466.624 112.963 471.238 108.414 474.644 102.568C477.94 96.6126 479.588 89.9572 479.588 82.4785C479.588 75.0067 477.94 68.3444 474.644 62.3889C471.238 56.55 466.624 51.9942 460.801 48.6047ZM453.667 97.6555C450.371 101.511 445.977 103.378 440.703 103.378C435.43 103.378 431.145 101.511 427.629 97.6555C424.224 93.9161 422.576 88.7771 422.576 82.4716C422.576 76.1662 424.224 71.0272 427.629 67.2878C431.145 63.4318 435.43 61.5656 440.703 61.5656C445.977 61.5656 450.371 63.4318 453.667 67.2878C457.073 71.0272 458.831 76.1662 458.831 82.4716C458.831 88.7771 457.066 93.9161 453.667 97.6555Z" fill="white"/>
<path d="M544.174 82.0051C544.174 88.7771 542.746 93.7995 539.67 97.3056C536.704 100.695 532.749 102.328 527.805 102.328C518.246 102.328 513.522 96.2558 513.522 84.1115V44.7488H492.875V87.3774C492.875 98.5886 495.621 107 501.115 112.723C506.498 118.445 513.969 121.251 523.19 121.251C527.585 121.251 531.76 120.435 535.495 118.678C539.231 116.929 542.526 114.472 545.273 111.206V120.201H564.712V44.7488H544.174V82.0051Z" fill="white"/>
<path d="M611.157 103.961C608.301 103.961 606.103 103.028 604.565 101.271C603.027 99.6384 602.258 97.1821 602.258 93.9162V63.3152H619.939V46.5052H602.258V28.0486H581.72V46.4984V63.3152V94.2661C581.72 103.144 584.028 109.8 588.642 114.472C593.256 119.028 599.848 121.244 608.191 121.244C611.487 121.244 614.563 120.894 617.529 120.078C620.496 119.261 622.913 118.095 625 116.572L619.397 101.155C617.2 103.028 614.343 103.961 611.157 103.961Z" fill="white"/>
</svg>
