<svg width="80" height="45" viewBox="0 0 80 45" fill="none" xmlns="http://www.w3.org/2000/svg">
<rect width="80" height="45" rx="5" fill="#F2F2F2"/>
<path d="M47.0417 29.6666H32.9583C32.0609 29.6666 31.3333 28.9205 31.3333 28V18C31.3333 17.0795 32.0609 16.3333 32.9583 16.3333H47.0417C47.9391 16.3333 48.6667 17.0795 48.6667 18V28C48.6667 28.9205 47.9391 29.6666 47.0417 29.6666ZM35.125 18.2778C34.078 18.2778 33.2292 19.1483 33.2292 20.2222C33.2292 21.2961 34.078 22.1666 35.125 22.1666C36.172 22.1666 37.0208 21.2961 37.0208 20.2222C37.0208 19.1483 36.172 18.2778 35.125 18.2778ZM33.5 27.4444H46.5V23.5555L43.5373 20.5168C43.3786 20.3541 43.1214 20.3541 42.9627 20.5168L38.375 25.2222L36.4956 23.2946C36.3369 23.1319 36.0797 23.1319 35.921 23.2946L33.5 25.7778V27.4444Z" fill="#828282"/>
</svg>
