<svg width="1342" height="320" viewBox="0 0 1342 320" fill="none" xmlns="http://www.w3.org/2000/svg">
<path d="M1341.24 5.60449H1148.29V62.3794H1213V314.531H1276.53V62.3794H1341.24V5.60449Z" fill="#FCFCFD"/>
<path d="M1061.2 5.58203V229.891C1061.2 250.404 1050.89 263.134 1029.41 263.111C1007.91 263.111 997.623 250.404 997.623 229.891V5.58203H934.088V224.195C934.088 287.21 968.338 319.864 1029.41 319.864C1090.49 319.864 1124.74 292.449 1124.74 224.195V5.58203H1061.2Z" fill="#FCFCFD"/>
<path d="M814.182 0.38623C749.835 0.38623 717.142 43.1376 717.142 96.2591V223.469C717.142 280.812 754.347 320 814.182 320C874.017 320 911.222 280.812 911.222 223.469V96.2591C911.222 43.1376 878.529 0.38623 814.182 0.38623ZM847.642 224.082C847.642 250.246 835.097 263.294 814.182 263.294C793.267 263.294 780.406 250.586 780.406 224.082V96.1684C780.406 72.0016 791.8 57.0477 814.182 57.0477C836.564 57.0477 847.642 72.932 847.642 96.1684V224.082Z" fill="#FCFCFD"/>
<path d="M613.195 256.122V5.60449H549.683V314.735H697.984V256.122H613.195Z" fill="#FCFCFD"/>
<path d="M441.183 256.122V5.60449H377.648V314.735H525.949V256.122H441.183Z" fill="#FCFCFD"/>
<path d="M354.594 62.1298V5.60449H205.323V314.531H354.594V256.78H268.858V184.348H346.539V130.387H268.858V62.1298H354.594Z" fill="#FCFCFD"/>
<path d="M91.2188 319.977C45.0792 319.977 0 297.059 0 229.369V208.606H62.249V229.233C62.249 256.304 73.8008 264.019 88.6016 264.019H92.0762C113.691 264.019 120.617 251.993 120.617 230.413C120.617 211.034 112.044 200.391 94.6031 191.542L50.0654 168.759C19.223 152.648 2.27878 128.209 2.27878 85.9339C2.27878 30.0213 38.1977 0 89.9779 0H93.3622C152.746 0 180.52 38.1676 180.52 85.5481V100.321H119.196V83.9824C119.196 66.4189 109.72 56.0488 92.4597 56.0488H89.7522C70.236 56.0488 63.7607 69.4143 63.7607 83.9824C63.7607 100.184 70.1457 109.17 83.841 116.704L135.599 144.206C162.56 158.253 182.392 182.714 182.392 228.733C182.392 287.732 148.256 319.977 95.3702 319.977H91.2413H91.2188Z" fill="#FCFCFD"/>
</svg>
