<svg width="126" height="32" viewBox="0 0 126 32" fill="none" xmlns="http://www.w3.org/2000/svg">
<g clip-path="url(#clip0)">
<path d="M20.9319 18.5015C20.9319 14.7082 17.8481 11.6288 14.0413 11.6288H6.89052C5.47699 11.6288 4.20806 11.0158 3.3368 10.0422C4.21168 9.06864 5.4806 8.45565 6.89052 8.45565H16.1634V0H6.89052C3.08374 0 0 3.07577 0 6.8727C0 8.01574 0.281984 9.09388 0.777262 10.0458C0.281984 10.9905 0 12.0723 0 13.2153C0 17.0087 3.08374 20.088 6.89052 20.088H14.0449C15.4585 20.088 16.7274 20.701 17.5987 21.6746C16.7238 22.6482 15.4549 23.2612 14.0449 23.2612H4.76841V31.7204H14.0413C17.8445 31.7204 20.9319 28.6447 20.9319 24.8477C20.9319 23.7047 20.6499 22.6265 20.1546 21.6746C20.6535 20.7227 20.9319 19.6445 20.9319 18.5015ZM6.89052 2.11301H14.0449V6.34264H6.89052C5.11908 6.34264 3.5031 7.00972 2.28479 8.10589C2.17995 7.71285 2.12211 7.29818 2.12211 6.8727C2.11849 4.24405 4.25506 2.11301 6.89052 2.11301ZM14.0449 29.6002H6.89052V25.3742H14.0449C15.8164 25.3742 17.4324 24.7071 18.6507 23.6109C18.7555 24.004 18.8134 24.4186 18.8134 24.8441C18.8134 27.4728 16.6768 29.6002 14.0449 29.6002ZM18.6507 19.7347C17.4287 18.6385 15.8164 17.9714 14.0449 17.9714H6.89052C4.25506 17.9714 2.12211 15.8404 2.12211 13.2153C2.12211 12.7899 2.17995 12.3752 2.28479 11.9821C3.50672 13.0783 5.11908 13.7454 6.89052 13.7454H14.0449C16.6804 13.7454 18.8134 15.8764 18.8134 18.5015C18.8134 18.927 18.7591 19.3416 18.6507 19.7347Z" fill="white"/>
<path d="M41.6524 17.1063C39.2411 16.6159 36.9961 16.4861 36.9961 15.0365C36.9961 13.8214 38.1565 13.1651 39.899 13.1651C41.8115 13.1651 42.9719 13.825 43.1708 15.6315H47.227C46.898 12.2456 44.4252 10.0352 39.9677 10.0352C36.1103 10.0352 33.0736 11.7841 33.0736 15.4332C33.0736 19.1183 36.0453 19.9404 39.0784 20.5318C41.3885 20.9933 43.5287 21.1592 43.5287 22.771C43.5287 23.9573 42.408 24.7181 40.4269 24.7181C38.4168 24.7181 37.0322 23.8636 36.7322 21.9164H32.5747C32.8386 25.5078 35.5825 27.8768 40.4955 27.8768C44.7181 27.8768 47.6247 25.836 47.6247 22.4429C47.6211 18.4873 44.4903 17.6976 41.6524 17.1063Z" fill="white"/>
<path d="M57.317 24.4118C54.7792 24.4118 53.3259 22.8036 52.9969 20.2002H65.274C65.274 14.1821 62.371 10.0318 56.923 10.0318C51.9738 10.0318 48.5792 13.9152 48.5792 18.9201C48.5792 23.9538 51.746 27.8734 57.3568 27.8734C61.7131 27.8734 64.3811 25.3349 65.0137 22.342H60.5924C60.0899 23.6221 59.0704 24.4118 57.317 24.4118ZM56.988 13.4933C59.0342 13.4933 60.455 14.9717 60.5888 17.1064H53.0656C53.4596 14.9032 54.6129 13.4933 56.988 13.4933Z" fill="white"/>
<path d="M67.2803 3.84399V27.3756H71.7668V3.84399H67.2803Z" fill="white"/>
<path d="M74.5612 3.86555V27.3972H79.0476V3.86555H74.5612Z" fill="white"/>
<path d="M89.8063 10.0318C84.5571 10.0318 80.9636 13.9152 80.9636 18.949C80.9636 23.9899 84.5571 27.8734 89.8063 27.8734C95.0483 27.8734 98.649 23.9899 98.649 18.949C98.649 13.9152 95.0483 10.0318 89.8063 10.0318ZM89.8063 24.4478C87.0334 24.4478 85.5151 22.2375 85.5151 18.949C85.5151 15.6604 87.0334 13.4248 89.8063 13.4248C92.543 13.4248 94.0975 15.6568 94.0975 18.949C94.0975 22.2411 92.543 24.4478 89.8063 24.4478Z" fill="white"/>
<path d="M111.07 10.4933V20.2362C111.07 22.4754 109.78 24.0548 107.669 24.0548C105.756 24.0548 104.867 22.9658 104.867 20.9899V10.4933H100.409V21.7507C100.409 25.4358 102.521 27.8373 106.284 27.8373C108.659 27.8373 109.979 26.9539 111.139 25.4034H111.233V27.3794H115.56V10.4933H111.07Z" fill="white"/>
<path d="M124.411 24.0836C123.42 24.0836 122.723 23.6581 122.723 22.4069V13.4536H125.626V10.4932H122.723V5.22514H118.337V23.3588C118.337 26.5536 120.741 27.4118 122.921 27.4118C124.704 27.4118 125.73 27.3469 125.73 27.3469V24.0547C125.734 24.0547 124.971 24.0836 124.411 24.0836Z" fill="white"/>
</g>
<defs>
<clipPath id="clip0">
<rect width="125.735" height="32" fill="white"/>
</clipPath>
</defs>
</svg>
