<svg width="21" height="32" viewBox="0 0 21 32" fill="none" xmlns="http://www.w3.org/2000/svg">
<g clip-path="url(#clip0)">
<path d="M20.9319 18.5015C20.9319 14.7082 17.8481 11.6288 14.0413 11.6288H6.89052C5.47699 11.6288 4.20806 11.0158 3.3368 10.0422C4.21168 9.06864 5.4806 8.45565 6.89052 8.45565H16.1634V0H6.89052C3.08374 0 0 3.07577 0 6.8727C0 8.01574 0.281984 9.09388 0.777262 10.0458C0.281984 10.9905 0 12.0723 0 13.2153C0 17.0087 3.08374 20.088 6.89052 20.088H14.0449C15.4585 20.088 16.7274 20.701 17.5987 21.6746C16.7238 22.6482 15.4549 23.2612 14.0449 23.2612H4.76841V31.7204H14.0413C17.8445 31.7204 20.9319 28.6447 20.9319 24.8477C20.9319 23.7047 20.6499 22.6265 20.1546 21.6746C20.6535 20.7227 20.9319 19.6445 20.9319 18.5015ZM6.89052 2.11301H14.0449V6.34264H6.89052C5.11908 6.34264 3.5031 7.00972 2.28479 8.10589C2.17995 7.71285 2.12211 7.29818 2.12211 6.8727C2.11849 4.24405 4.25506 2.11301 6.89052 2.11301ZM14.0449 29.6002H6.89052V25.3742H14.0449C15.8164 25.3742 17.4324 24.7071 18.6507 23.6109C18.7555 24.004 18.8134 24.4186 18.8134 24.8441C18.8134 27.4728 16.6768 29.6002 14.0449 29.6002ZM18.6507 19.7347C17.4287 18.6385 15.8164 17.9714 14.0449 17.9714H6.89052C4.25506 17.9714 2.12211 15.8404 2.12211 13.2153C2.12211 12.7899 2.17995 12.3752 2.28479 11.9821C3.50672 13.0783 5.11908 13.7454 6.89052 13.7454H14.0449C16.6804 13.7454 18.8134 15.8764 18.8134 18.5015C18.8134 18.927 18.7591 19.3416 18.6507 19.7347Z" fill="white"/>
</g>
<defs>
<clipPath id="clip0">
<rect width="20.9558" height="32" fill="white"/>
</clipPath>
</defs>
</svg>
