<svg width="326" height="320" viewBox="0 0 326 320" fill="none" xmlns="http://www.w3.org/2000/svg">
<path d="M45.041 172.604C15.1777 172.604 0 192.316 0 216.82V275.479C0 301.927 17.2639 320 45.041 320C72.818 320 90.082 301.927 90.082 275.479V216.82C90.082 192.316 74.9042 172.604 45.041 172.604ZM60.5703 275.771C60.5703 287.836 54.7571 293.856 45.041 293.856C35.3249 293.856 29.3593 288 29.3593 275.771V216.773C29.3593 205.622 34.6451 198.735 45.041 198.735C55.4369 198.735 60.5703 206.056 60.5703 216.773V275.771Z" fill="#FCFCFD"/>
<path d="M286.115 118.111V3.7099C286.115 3.08911 285.611 2.58545 284.99 2.58545H257.764C257.143 2.58545 256.639 3.08911 256.639 3.7099V144.395C256.639 144.816 256.978 145.144 257.389 145.144H324.335C324.956 145.144 325.46 144.641 325.46 144.02V119.247C325.46 118.626 324.956 118.122 324.335 118.122H286.115V118.111Z" fill="#FCFCFD"/>
<path d="M208.703 118.111V3.7099C208.703 3.08911 208.199 2.58545 207.578 2.58545H180.352C179.731 2.58545 179.227 3.08911 179.227 3.7099V144.02C179.227 144.641 179.731 145.144 180.352 145.144H246.923C247.544 145.144 248.048 144.641 248.048 144.02V119.247C248.048 118.626 247.544 118.122 246.923 118.122H208.703V118.111Z" fill="#FCFCFD"/>
<path d="M165.877 27.5224V3.7099C165.877 3.08911 165.373 2.58545 164.752 2.58545H97.735C97.1138 2.58545 96.6099 3.08911 96.6099 3.7099V143.938C96.6099 144.559 97.1138 145.062 97.735 145.062H164.752C165.373 145.062 165.877 144.559 165.877 143.938V119.551C165.877 118.931 165.373 118.427 164.752 118.427H126.086V85.0214H161.013C161.634 85.0214 162.138 84.5178 162.138 83.897V61.2792C162.138 60.6584 161.634 60.1548 161.013 60.1548H126.086V28.6703H164.752C165.373 28.6703 165.877 28.1666 165.877 27.5458V27.5224Z" fill="#FCFCFD"/>
<path d="M291.073 176.139C291.073 175.518 290.569 175.015 289.948 175.015H202.655C202.034 175.015 201.53 175.518 201.53 176.139V200.069C201.53 200.69 202.034 201.193 202.655 201.193H231.558V316.367C231.558 316.988 232.062 317.491 232.683 317.491H259.909C260.53 317.491 261.034 316.988 261.034 316.367V201.193H289.936C290.557 201.193 291.061 200.69 291.061 200.069V176.139H291.073Z" fill="#FCFCFD"/>
<path d="M162.537 175.004C161.916 175.004 161.412 175.508 161.412 176.128V278.453C161.412 287.917 156.63 293.785 146.656 293.774C136.682 293.774 131.901 287.917 131.901 278.453V176.128C131.901 175.508 131.397 175.004 130.775 175.004H103.549C102.928 175.004 102.424 175.508 102.424 176.128V275.818C102.424 304.877 118.317 319.929 146.668 319.929C175.019 319.929 190.912 304.866 190.912 275.818V176.128C190.912 175.508 190.408 175.004 189.787 175.004H162.561H162.537Z" fill="#FCFCFD"/>
<path d="M42.3336 147.572C20.9207 147.572 0 137.007 0 105.792V97.3466C0 96.7258 0.503972 96.2222 1.12515 96.2222H27.7536C28.3748 96.2222 28.8787 96.7258 28.8787 97.3466V105.733C28.8787 118.207 34.2349 121.768 41.1147 121.768H42.7204C52.7529 121.768 55.9643 116.216 55.9643 106.272C55.9643 97.3349 51.9794 92.4272 43.8924 88.3393L23.2179 77.8328C8.91913 70.395 1.05482 59.1271 1.05482 39.6367C1.05482 13.8447 17.7328 0 41.7593 0H43.3298C70.8842 0 83.7882 17.6046 83.7882 39.4493V45.1301C83.7882 45.7509 83.2842 46.2546 82.6631 46.2546H56.4565C55.8354 46.2546 55.3314 45.7509 55.3314 45.1301V38.7231C55.3314 30.6295 50.9363 25.8506 42.9196 25.8506H41.6656C32.6058 25.8506 29.6054 32.0116 29.6054 38.7231C29.6054 46.196 32.5706 50.3424 38.923 53.8095L62.9496 66.4946C75.4668 72.9719 84.6672 84.2515 84.6672 105.475C84.6672 132.685 68.8214 147.56 44.2792 147.56H42.3688L42.3336 147.572Z" fill="#FCFCFD"/>
</svg>
