<svg width="19" height="25" viewBox="0 0 19 25" fill="none" xmlns="http://www.w3.org/2000/svg">
<g clip-path="url(#clip0_99_5907)">
<path d="M16.25 3.01294H14.75H13.175C12.8281 1.302 11.3141 0.0129395 9.5 0.0129395C7.68594 0.0129395 6.17188 1.302 5.825 3.01294H4.25H2.75H0.5V5.26294V21.7629V24.0129H2.75H16.25H18.5V21.7629V5.26294V3.01294H16.25ZM4.25 5.26294V7.51294H9.5H14.75V5.26294H16.25V21.7629H2.75V5.26294H4.25ZM8.375 3.76294C8.375 3.46457 8.49353 3.17842 8.7045 2.96744C8.91548 2.75647 9.20163 2.63794 9.5 2.63794C9.79837 2.63794 10.0845 2.75647 10.2955 2.96744C10.5065 3.17842 10.625 3.46457 10.625 3.76294C10.625 4.06131 10.5065 4.34746 10.2955 4.55843C10.0845 4.76941 9.79837 4.88794 9.5 4.88794C9.20163 4.88794 8.91548 4.76941 8.7045 4.55843C8.49353 4.34746 8.375 4.06131 8.375 3.76294ZM14.0469 12.5567L14.8438 11.7598L13.25 10.1708L12.4531 10.9676L8.24844 15.1723L6.54688 13.4661L5.75 12.6692L4.16094 14.2629L4.95781 15.0598L7.45625 17.5583L8.25312 18.3551L9.05 17.5583L14.0469 12.5567Z" fill="white"/>
</g>
<defs>
<clipPath id="clip0_99_5907">
<rect width="18" height="24" fill="white" transform="translate(0.5 0.0129395)"/>
</clipPath>
</defs>
</svg>
