<svg width="17" height="20" viewBox="0 0 17 20" fill="none" xmlns="http://www.w3.org/2000/svg">
<path d="M8.50006 12C10.7061 12 12.5001 10.206 12.5001 8C12.5001 5.794 10.7061 4 8.50006 4C6.29406 4 4.50006 5.794 4.50006 8C4.50006 10.206 6.29406 12 8.50006 12ZM8.50006 6C9.60306 6 10.5001 6.897 10.5001 8C10.5001 9.103 9.60306 10 8.50006 10C7.39706 10 6.50006 9.103 6.50006 8C6.50006 6.897 7.39706 6 8.50006 6Z" fill="#EF3D07"/>
<path d="M7.92009 19.814C8.08934 19.9349 8.29211 19.9998 8.50009 19.9998C8.70806 19.9998 8.91084 19.9349 9.08009 19.814C9.38409 19.599 16.5291 14.44 16.5001 8C16.5001 3.589 12.9111 0 8.50009 0C4.08909 0 0.500088 3.589 0.500088 7.995C0.471088 14.44 7.61609 19.599 7.92009 19.814ZM8.50009 2C11.8091 2 14.5001 4.691 14.5001 8.005C14.5211 12.443 10.1121 16.428 8.50009 17.735C6.88909 16.427 2.47909 12.441 2.50009 8C2.50009 4.691 5.19109 2 8.50009 2Z" fill="#EF3D07"/>
</svg>
