<svg width="167" height="40" viewBox="0 0 167 40" fill="none" xmlns="http://www.w3.org/2000/svg">
<g id="Company Logo">
<path id="Vector" d="M166.5 1.09521H142.619V8.12202H150.628V39.3298H158.491V8.12202H166.5V1.09521Z" fill="white"/>
<path id="Vector_2" d="M131.84 1.09253V28.8543C131.84 31.3932 130.564 32.9687 127.905 32.9659C125.244 32.9659 123.971 31.3932 123.971 28.8543V1.09253H116.107V28.1494C116.107 35.9485 120.346 39.9899 127.905 39.9899C135.465 39.9899 139.703 36.5969 139.703 28.1494V1.09253H131.84Z" fill="white"/>
<path id="Vector_3" d="M101.268 0.450195C93.304 0.450195 89.2578 5.74136 89.2578 12.316V28.0603C89.2578 35.1573 93.8625 40.0076 101.268 40.0076C108.674 40.0076 113.278 35.1573 113.278 28.0603V12.316C113.278 5.74136 109.232 0.450195 101.268 0.450195ZM105.409 28.1361C105.409 31.3743 103.857 32.9892 101.268 32.9892C98.6795 32.9892 97.0878 31.4164 97.0878 28.1361V12.3048C97.0878 9.31374 98.4979 7.46296 101.268 7.46296C104.038 7.46296 105.409 9.42889 105.409 12.3048V28.1361Z" fill="white"/>
<path id="Vector_4" d="M76.3929 32.1008V1.09521H68.5322V39.3551H86.8868V32.1008H76.3929Z" fill="white"/>
<path id="Vector_5" d="M55.1027 32.1008V1.09521H47.2393V39.3551H65.5939V32.1008H55.1027Z" fill="white"/>
<path id="Vector_6" d="M44.3868 8.09112V1.09521H25.9121V39.3298H44.3868V32.1822H33.7756V23.2176H43.3899V16.539H33.7756V8.09112H44.3868Z" fill="white"/>
<path id="Vector_7" d="M11.7898 40.0041C6.07927 40.0041 0.5 37.1676 0.5 28.7899V26.2202H8.2043V28.7731C8.2043 32.1236 9.63403 33.0784 11.4659 33.0784H11.8959C14.571 33.0784 15.4283 31.59 15.4283 28.9191C15.4283 26.5207 14.3672 25.2035 12.2086 24.1082L6.69639 21.2885C2.87915 19.2945 0.782035 16.2697 0.782035 11.0375C0.782035 4.11747 5.22758 0.401855 11.6362 0.401855H12.0551C19.4047 0.401855 22.8422 5.12571 22.8422 10.9898V12.8181H15.2524V10.796C15.2524 8.62226 14.0796 7.33879 11.9434 7.33879H11.6083C9.19282 7.33879 8.3914 8.99298 8.3914 10.796C8.3914 12.8013 9.18165 13.9134 10.8767 14.8458L17.2825 18.2497C20.6194 19.9882 23.074 23.0157 23.074 28.7113C23.074 36.0133 18.849 40.0041 12.3036 40.0041H11.7926H11.7898Z" fill="white"/>
</g>
</svg>
